<?xml version="1.0" encoding="utf-8"?>
<!-- Generator: Adobe Illustrator 22.1.0, SVG Export Plug-In . SVG Version: 6.00 Build 0)  -->
<svg version="1.1" id="Layer_1" xmlns="http://www.w3.org/2000/svg" xmlns:xlink="http://www.w3.org/1999/xlink" x="0px" y="0px"
	 viewBox="0 0 253.5 40" style="enable-background:new 0 0 253.5 40;" xml:space="preserve">
<style type="text/css">
	.st0{fill:#FFFFFF;}
	.st1{fill:#F9B903;}
</style>
<g>
	<g>
		<path class="st0" d="M2.6,20.6c0.1,0.9,0.3,1.7,0.7,2.4c0.3,0.7,0.8,1.3,1.4,1.8c0.5,0.5,1.2,0.8,1.9,1.1c0.7,0.3,1.4,0.4,2.2,0.4
			c1.2,0,2.2-0.2,3-0.7c0.8-0.4,1.6-1,2.3-1.7l1.6,1.4c-0.8,1-1.8,1.7-2.9,2.3c-1.1,0.6-2.5,0.9-4.1,0.9c-1.2,0-2.3-0.2-3.3-0.6
			s-1.9-1-2.7-1.8c-0.8-0.8-1.4-1.7-1.8-2.8C0.2,22,0,20.9,0,19.5c0-1.2,0.2-2.4,0.6-3.5c0.4-1.1,1-2,1.7-2.8
			c0.7-0.8,1.6-1.4,2.6-1.9c1-0.5,2.1-0.7,3.3-0.7c1.3,0,2.4,0.3,3.4,0.7c1,0.5,1.8,1.1,2.5,1.9c0.7,0.8,1.2,1.8,1.6,2.9
			c0.3,1.1,0.5,2.3,0.5,3.5c0,0.1,0,0.3,0,0.4c0,0.1,0,0.3,0,0.5H2.6z M13.5,18.4c-0.1-0.8-0.2-1.5-0.5-2.2
			c-0.3-0.7-0.6-1.3-1.1-1.8c-0.5-0.5-1-0.9-1.6-1.2c-0.6-0.3-1.4-0.5-2.2-0.5c-0.7,0-1.4,0.1-2,0.4c-0.6,0.3-1.2,0.7-1.7,1.2
			c-0.5,0.5-0.9,1.1-1.2,1.8c-0.3,0.7-0.5,1.4-0.6,2.2L13.5,18.4L13.5,18.4z"/>
		<path class="st0" d="M25.4,28.3c-1.2,0-2.5-0.2-3.7-0.7c-1.3-0.5-2.4-1.1-3.3-1.8l1.3-1.8c0.9,0.7,1.9,1.2,2.9,1.6
			c1,0.4,2,0.5,3,0.5c1,0,1.9-0.3,2.5-0.7c0.7-0.5,1-1.1,1-2v-0.1c0-0.4-0.1-0.8-0.3-1.1c-0.2-0.3-0.5-0.6-0.9-0.8
			c-0.4-0.2-0.8-0.4-1.4-0.6s-1.1-0.3-1.6-0.5c-0.7-0.2-1.3-0.4-2-0.6c-0.7-0.2-1.3-0.5-1.8-0.9c-0.5-0.3-1-0.8-1.3-1.3
			c-0.3-0.5-0.5-1.2-0.5-2v-0.1c0-0.7,0.1-1.4,0.4-2c0.3-0.6,0.7-1.1,1.2-1.6c0.5-0.4,1.1-0.8,1.9-1c0.7-0.2,1.5-0.3,2.3-0.3
			c1.1,0,2.1,0.2,3.2,0.5c1.1,0.3,2.1,0.8,2.9,1.4l-1.1,1.9c-0.8-0.5-1.6-0.9-2.5-1.2c-0.9-0.3-1.7-0.5-2.5-0.5
			c-1,0-1.8,0.3-2.4,0.7c-0.6,0.5-0.9,1.1-0.9,1.8v0.1c0,0.4,0.1,0.8,0.4,1.1c0.3,0.3,0.5,0.5,1,0.8c0.4,0.2,0.9,0.4,1.4,0.6
			c0.5,0.2,1.1,0.3,1.6,0.5c0.7,0.2,1.3,0.4,1.9,0.7c0.6,0.3,1.2,0.5,1.8,0.9c0.5,0.4,0.9,0.8,1.3,1.4c0.3,0.5,0.5,1.2,0.5,1.9v0.1
			c0,0.8-0.2,1.5-0.5,2.2c-0.3,0.6-0.8,1.1-1.3,1.6c-0.5,0.4-1.2,0.8-1.9,1C27.1,28.3,26.3,28.3,25.4,28.3z"/>
		<path class="st0" d="M35.4,11h2.5v3.4c0.3-0.5,0.8-1,1.2-1.4c0.4-0.5,0.9-0.8,1.4-1.2c0.5-0.3,1.1-0.6,1.8-0.8
			c0.6-0.2,1.4-0.3,2.2-0.3c1,0,2,0.2,3,0.6c1,0.4,1.9,1,2.6,1.7s1.4,1.7,1.9,2.7c0.5,1.1,0.7,2.3,0.7,3.8v0.1
			c0,1.4-0.2,2.6-0.7,3.7c-0.5,1.1-1.1,2-1.8,2.8c-0.8,0.8-1.6,1.4-2.6,1.7c-1,0.4-2,0.6-3,0.6c-0.8,0-1.5-0.1-2.2-0.3
			c-0.7-0.2-1.3-0.5-1.8-0.8c-0.5-0.3-1-0.7-1.4-1.1s-0.8-0.9-1.1-1.4v8.5h-2.5L35.4,11L35.4,11z M44,26.1c0.8,0,1.6-0.2,2.3-0.5
			c0.7-0.3,1.4-0.7,1.9-1.3c0.5-0.5,1-1.2,1.3-2.1c0.3-0.8,0.5-1.7,0.5-2.8v-0.1c0-1-0.2-1.9-0.5-2.7c-0.3-0.8-0.8-1.5-1.3-2.1
			c-0.5-0.6-1.2-1-1.9-1.3c-0.7-0.3-1.5-0.5-2.3-0.5c-0.8,0-1.6,0.2-2.3,0.5c-0.7,0.3-1.4,0.8-2,1.4c-0.6,0.6-1.1,1.3-1.4,2.1
			c-0.3,0.8-0.5,1.7-0.5,2.7v0.1c0,1,0.2,1.9,0.5,2.7c0.3,0.8,0.8,1.5,1.4,2.1c0.6,0.6,1.2,1,2,1.4C42.4,26,43.2,26.1,44,26.1z"/>
		<path class="st0" d="M61.5,28.4c-0.8,0-1.6-0.1-2.3-0.3s-1.4-0.5-2-1c-0.6-0.5-1.1-1-1.4-1.6c-0.4-0.7-0.5-1.4-0.5-2.3V23
			c0-0.9,0.2-1.7,0.5-2.4c0.3-0.7,0.8-1.3,1.5-1.7c0.6-0.5,1.4-0.8,2.3-1.1c0.9-0.3,1.9-0.4,3-0.4s2,0.1,2.8,0.2
			c0.8,0.1,1.6,0.3,2.4,0.5v-0.5c0-1.5-0.4-2.7-1.3-3.4c-0.9-0.8-2.1-1.2-3.7-1.2c-1,0-1.9,0.1-2.7,0.3c-0.8,0.2-1.6,0.5-2.4,0.9
			l-0.8-2.1c0.9-0.5,1.9-0.8,2.9-1.1c1-0.3,2.1-0.4,3.3-0.4c2.4,0,4.3,0.6,5.5,1.9c1.2,1.2,1.8,2.9,1.8,5V28h-2.5v-2.5
			c-0.6,0.8-1.4,1.4-2.4,2C64.3,28.1,63,28.4,61.5,28.4z M62,26.3c0.8,0,1.5-0.1,2.2-0.3c0.7-0.2,1.3-0.5,1.8-0.9
			c0.5-0.4,0.9-0.9,1.2-1.4c0.3-0.5,0.4-1.2,0.4-1.9v-1.6c-0.6-0.2-1.4-0.3-2.2-0.5c-0.8-0.2-1.7-0.2-2.8-0.2
			c-1.6,0-2.8,0.3-3.7,0.9c-0.8,0.6-1.3,1.4-1.3,2.5V23c0,0.5,0.1,1,0.3,1.4c0.2,0.4,0.5,0.8,0.9,1.1c0.4,0.3,0.8,0.5,1.4,0.7
			C60.9,26.2,61.5,26.3,62,26.3z"/>
		<path class="st0" d="M82.4,28.4c-1.3,0-2.4-0.3-3.5-0.7c-1.1-0.5-2-1.1-2.7-1.9c-0.8-0.8-1.4-1.7-1.8-2.8
			c-0.4-1.1-0.7-2.2-0.7-3.4v-0.1c0-1.2,0.2-2.4,0.7-3.4c0.4-1.1,1.1-2,1.8-2.8s1.7-1.4,2.7-1.9c1.1-0.5,2.2-0.7,3.5-0.7
			c0.8,0,1.6,0.1,2.2,0.2c0.7,0.2,1.3,0.4,1.8,0.6c0.5,0.3,1.1,0.6,1.5,1c0.5,0.4,0.9,0.8,1.3,1.2l-1.7,1.8
			c-0.7-0.7-1.4-1.3-2.2-1.8c-0.8-0.5-1.8-0.8-3-0.8c-0.8,0-1.6,0.2-2.4,0.5c-0.8,0.3-1.4,0.8-1.9,1.4c-0.5,0.6-1,1.3-1.3,2.1
			c-0.3,0.8-0.5,1.6-0.5,2.6v0.1c0,0.9,0.2,1.8,0.5,2.6c0.3,0.8,0.8,1.5,1.3,2.1c0.5,0.6,1.2,1.1,2,1.4c0.8,0.3,1.6,0.5,2.5,0.5
			c1.1,0,2.1-0.3,2.9-0.7c0.8-0.5,1.6-1.1,2.3-1.8l1.6,1.5c-0.8,1-1.8,1.8-2.9,2.4C85.4,28.1,84,28.4,82.4,28.4z"/>
		<path class="st0" d="M92.8,4.4h2.9v2.8h-2.9V4.4z M92.9,11h2.5V28h-2.5V11z"/>
		<path class="st0" d="M108.3,28.4c-1.3,0-2.5-0.3-3.5-0.7c-1.1-0.5-2-1.1-2.8-1.9c-0.8-0.8-1.4-1.7-1.9-2.8
			c-0.4-1.1-0.7-2.2-0.7-3.4v-0.1c0-1.2,0.2-2.4,0.7-3.4c0.4-1.1,1.1-2,1.9-2.8s1.7-1.4,2.8-1.9c1.1-0.5,2.3-0.7,3.6-0.7
			c1.3,0,2.5,0.3,3.6,0.7c1.1,0.5,2,1.1,2.8,1.9c0.8,0.8,1.4,1.7,1.9,2.8c0.4,1.1,0.7,2.2,0.7,3.4v0.1c0,1.2-0.2,2.4-0.7,3.4
			s-1.1,2-1.9,2.8c-0.8,0.8-1.7,1.4-2.8,1.9C110.8,28.2,109.6,28.4,108.3,28.4z M108.4,26.1c0.9,0,1.8-0.2,2.5-0.5
			c0.8-0.3,1.4-0.8,2-1.4c0.5-0.6,1-1.3,1.3-2.1c0.3-0.8,0.5-1.6,0.5-2.5v-0.1c0-0.9-0.2-1.8-0.5-2.6c-0.3-0.8-0.8-1.5-1.4-2.1
			c-0.6-0.6-1.2-1.1-2-1.4c-0.8-0.3-1.6-0.5-2.5-0.5c-0.9,0-1.8,0.2-2.5,0.5c-0.8,0.3-1.4,0.8-1.9,1.4c-0.5,0.6-1,1.3-1.3,2.1
			s-0.5,1.6-0.5,2.5v0.1c0,0.9,0.2,1.8,0.5,2.6c0.3,0.8,0.8,1.5,1.3,2.1c0.5,0.6,1.2,1.1,2,1.4C106.7,26,107.5,26.1,108.4,26.1z"/>
		<path class="st0" d="M174.1,28.4c-1.3,0-2.4-0.3-3.5-0.7c-1.1-0.5-2-1.1-2.7-1.9c-0.8-0.8-1.4-1.7-1.8-2.8
			c-0.4-1.1-0.7-2.2-0.7-3.4v-0.1c0-1.2,0.2-2.4,0.7-3.4c0.4-1.1,1.1-2,1.8-2.8s1.7-1.4,2.7-1.9c1.1-0.5,2.2-0.7,3.5-0.7
			c0.8,0,1.6,0.1,2.2,0.2c0.7,0.2,1.3,0.4,1.8,0.6c0.5,0.3,1.1,0.6,1.5,1c0.5,0.4,0.9,0.8,1.3,1.2l-1.7,1.8
			c-0.7-0.7-1.4-1.3-2.2-1.8c-0.8-0.5-1.8-0.8-3-0.8c-0.8,0-1.6,0.2-2.4,0.5c-0.8,0.3-1.4,0.8-1.9,1.4c-0.5,0.6-1,1.3-1.3,2.1
			c-0.3,0.8-0.5,1.6-0.5,2.6v0.1c0,0.9,0.2,1.8,0.5,2.6c0.3,0.8,0.8,1.5,1.3,2.1c0.5,0.6,1.2,1.1,2,1.4c0.8,0.3,1.6,0.5,2.5,0.5
			c1.1,0,2.1-0.3,2.9-0.7c0.8-0.5,1.6-1.1,2.3-1.8l1.6,1.5c-0.8,1-1.8,1.8-2.9,2.4C177,28.1,175.7,28.4,174.1,28.4z"/>
		<path class="st0" d="M184.6,11h2.5V28h-2.5V11z M188,3.6l2.6,1.2l-3.7,3.6h-2.1L188,3.6z"/>
		<path class="st0" d="M190.6,11h2.8l5.8,14.2l5.8-14.2h2.7l-7.4,17.2H198L190.6,11z"/>
		<path class="st0" d="M210.9,4.4h2.9v2.8h-2.9V4.4z M211,11h2.5V28H211V11z"/>
		<path class="st0" d="M226.4,28.4c-1.3,0-2.4-0.3-3.5-0.7c-1.1-0.5-2-1.1-2.7-1.9c-0.8-0.8-1.4-1.7-1.8-2.8
			c-0.4-1.1-0.7-2.2-0.7-3.4v-0.1c0-1.2,0.2-2.4,0.7-3.4c0.4-1.1,1.1-2,1.8-2.8c0.8-0.8,1.7-1.4,2.7-1.9c1.1-0.5,2.2-0.7,3.5-0.7
			c0.8,0,1.6,0.1,2.2,0.2c0.7,0.2,1.3,0.4,1.8,0.6c0.5,0.3,1.1,0.6,1.5,1c0.5,0.4,0.9,0.8,1.3,1.2l-1.7,1.8
			c-0.7-0.7-1.4-1.3-2.2-1.8c-0.8-0.5-1.8-0.8-3-0.8c-0.8,0-1.6,0.2-2.4,0.5c-0.8,0.3-1.4,0.8-1.9,1.4c-0.5,0.6-1,1.3-1.3,2.1
			s-0.5,1.6-0.5,2.6v0.1c0,0.9,0.2,1.8,0.5,2.6c0.3,0.8,0.8,1.5,1.3,2.1c0.5,0.6,1.2,1.1,2,1.4c0.8,0.3,1.6,0.5,2.5,0.5
			c1.1,0,2.1-0.3,2.9-0.7c0.8-0.5,1.6-1.1,2.3-1.8l1.6,1.5c-0.8,1-1.8,1.8-2.9,2.4C229.3,28.1,228,28.4,226.4,28.4z"/>
		<path class="st0" d="M244.5,28.4c-1.3,0-2.5-0.3-3.5-0.7c-1.1-0.5-2-1.1-2.8-1.9c-0.8-0.8-1.4-1.7-1.9-2.8
			c-0.4-1.1-0.7-2.2-0.7-3.4v-0.1c0-1.2,0.2-2.4,0.7-3.4c0.4-1.1,1.1-2,1.9-2.8c0.8-0.8,1.7-1.4,2.8-1.9c1.1-0.5,2.3-0.7,3.6-0.7
			c1.3,0,2.5,0.3,3.6,0.7c1.1,0.5,2,1.1,2.8,1.9c0.8,0.8,1.4,1.7,1.9,2.8c0.4,1.1,0.7,2.2,0.7,3.4v0.1c0,1.2-0.2,2.4-0.7,3.4
			s-1.1,2-1.9,2.8c-0.8,0.8-1.7,1.4-2.8,1.9C246.9,28.2,245.7,28.4,244.5,28.4z M244.5,26.1c0.9,0,1.8-0.2,2.5-0.5
			c0.8-0.3,1.4-0.8,2-1.4c0.5-0.6,1-1.3,1.3-2.1c0.3-0.8,0.5-1.6,0.5-2.5v-0.1c0-0.9-0.2-1.8-0.5-2.6c-0.3-0.8-0.8-1.5-1.4-2.1
			c-0.6-0.6-1.2-1.1-2-1.4c-0.8-0.3-1.6-0.5-2.5-0.5c-0.9,0-1.8,0.2-2.5,0.5c-0.8,0.3-1.4,0.8-1.9,1.4c-0.5,0.6-1,1.3-1.3,2.1
			c-0.3,0.8-0.5,1.6-0.5,2.5v0.1c0,0.9,0.2,1.8,0.5,2.6c0.3,0.8,0.8,1.5,1.3,2.1c0.5,0.6,1.2,1.1,2,1.4
			C242.8,26,243.6,26.1,244.5,26.1z"/>
	</g>
	<g>
		<path class="st1" d="M132.5,30.8c-6.5,2-9.3-3-10.1-4.7c2.2,6.9,8.2,12.2,15.5,13.5c0.1-0.8,0.2-1.7,0.4-2.5
			C136.2,33.2,133.8,31.5,132.5,30.8z"/>
		<path class="st1" d="M148.3,30.4c-0.7,0.1-1.4,0.2-2.2,0.4c-2.7,0.8-4.5,2.2-5.6,4.4c-0.1,1.6-0.2,3.1-0.2,4.7c0.4,0,0.8,0,1.1,0
			c8,0,14.9-4.7,18.1-11.5C155.2,34,150.2,31.6,148.3,30.4z M145.3,34.8c0,0,4-1.2,5,3C146.1,38.9,145.3,34.8,145.3,34.8z"/>
		<path class="st1" d="M133,29.8c1.4,0.7,3.5,2.2,5.6,5.5c0.1-0.4,0.1-0.8,0.2-1.1c0.1-0.5,0.3-1.1,0.4-1.7c-2-2.7-2-7.7-2-8
			l0.3-4.5c-1.5-1.8-5.6-8,1.9-13.2c6.1,6.6,1.1,11.7-0.8,13.2l-0.2,4.6c0,0,0,3.9,1.3,6.4c0.3-1.2,0.8-2.4,1.3-3.5
			c0.5-1,1-2,1.6-2.9c0.1-0.2,0.2-0.4,0.3-0.5c-0.1-2.3,0.3-11.1,10.7-12c0.7,9.8-6.9,12-9.7,12.4c-0.9,1.8-2.6,5.3-3.1,8.3
			c2.1-2.4,5-3.2,7.3-3.5c1.4-1.6,5.8-5.4,11.5-1c1.2-2.5,1.8-5.4,1.8-8.3c0-11-9-20-20-20c-11,0-20,9-20,20c0,1.9,0.3,3.8,0.8,5.7
			C122.9,25.3,129.8,22.7,133,29.8z M150.1,2.1c3,8.8-5.5,11.4-5.5,11.4S141.4,5.1,150.1,2.1z M126,13.1c0,0,8.5,1.5,6.5,10.3
			C123.7,21.4,126,13.1,126,13.1z"/>
	</g>
</g>
</svg>
