<?xml version="1.0" encoding="utf-8"?>
<!-- Generator: Adobe Illustrator 22.1.0, SVG Export Plug-In . SVG Version: 6.00 Build 0)  -->
<svg version="1.1" id="Layer_1" xmlns="http://www.w3.org/2000/svg" xmlns:xlink="http://www.w3.org/1999/xlink" x="0px" y="0px"
	 viewBox="0 0 192 30" style="enable-background:new 0 0 192 30;" xml:space="preserve">
<style type="text/css">
	.st0{fill:#FFFFFF;}
	.st1{fill:#F9B903;}
</style>
<g id="Welcome">
	<g id="Desktop" transform="translate(-72.000000, -16.000000)">
		<g id="logo" transform="translate(72.000000, 16.000000)">
			<g id="Group" transform="translate(0.000000, 3.000000)">
				<path id="Shape" class="st0" d="M2,12.5c0.1,0.7,0.2,1.2,0.5,1.8c0.3,0.5,0.6,1,1,1.3s0.9,0.6,1.4,0.8s1.1,0.3,1.6,0.3
					c0.9,0,1.7-0.2,2.3-0.5c0.6-0.3,1.2-0.7,1.8-1.3l1.2,1.1c-0.6,0.7-1.4,1.3-2.2,1.7c-0.8,0.4-1.9,0.7-3.1,0.7
					c-0.9,0-1.7-0.2-2.5-0.5c-0.8-0.3-1.5-0.7-2-1.3c-0.6-0.6-1.1-1.3-1.4-2.1C0.2,13.6,0,12.7,0,11.7c0-0.9,0.2-1.8,0.4-2.5
					c0.3-0.8,0.7-1.5,1.3-2.1s1.2-1.1,2-1.4c0.8-0.3,1.6-0.5,2.5-0.5c1,0,1.8,0.2,2.6,0.5c0.7,0.3,1.4,0.8,1.9,1.4
					c0.5,0.6,0.9,1.3,1.2,2.1c0.3,0.8,0.4,1.7,0.4,2.6c0,0.1,0,0.2,0,0.3s0,0.2,0,0.4H2z M10.2,10.9c-0.1-0.6-0.2-1.1-0.4-1.6
					C9.7,8.8,9.4,8.4,9.1,8C8.7,7.6,8.3,7.3,7.8,7.1S6.8,6.8,6.1,6.8c-0.5,0-1.1,0.1-1.5,0.3S3.7,7.6,3.3,7.9
					C2.9,8.3,2.6,8.7,2.4,9.3C2.1,9.8,2,10.3,2,10.9L10.2,10.9L10.2,10.9z"/>
				<path id="Shape_1_" class="st0" d="M19.2,18.2c-0.9,0-1.9-0.2-2.8-0.5c-1-0.3-1.8-0.8-2.5-1.3l1-1.3c0.7,0.5,1.4,0.9,2.2,1.2
					c0.8,0.3,1.5,0.4,2.3,0.4s1.4-0.2,1.9-0.5c0.5-0.3,0.7-0.8,0.7-1.5v-0.1c0-0.3-0.1-0.6-0.3-0.8c-0.2-0.2-0.4-0.4-0.7-0.6
					c-0.3-0.2-0.6-0.3-1-0.4c-0.4-0.1-0.8-0.2-1.2-0.4c-0.5-0.2-1-0.3-1.5-0.5c-0.5-0.2-1-0.4-1.4-0.7c-0.4-0.2-0.7-0.6-1-1
					c-0.3-0.4-0.4-0.9-0.4-1.5V8.8c0-0.5,0.1-1,0.3-1.5c0.2-0.4,0.5-0.8,0.9-1.1c0.4-0.3,0.9-0.6,1.4-0.7c0.5-0.2,1.1-0.2,1.8-0.2
					c0.8,0,1.6,0.1,2.4,0.4c0.8,0.2,1.6,0.6,2.2,1L22.6,8c-0.6-0.4-1.2-0.7-1.9-0.9s-1.3-0.3-1.9-0.3c-0.8,0-1.4,0.2-1.8,0.5
					s-0.7,0.8-0.7,1.3v0.1c0,0.3,0.1,0.6,0.3,0.8c0.2,0.2,0.4,0.4,0.7,0.6c0.3,0.2,0.7,0.3,1.1,0.4c0.4,0.1,0.8,0.2,1.2,0.4
					c0.5,0.2,1,0.3,1.5,0.5c0.5,0.2,0.9,0.4,1.3,0.7c0.4,0.3,0.7,0.6,1,1c0.3,0.4,0.4,0.9,0.4,1.4v0.1c0,0.6-0.1,1.1-0.4,1.6
					c-0.3,0.5-0.6,0.8-1,1.2C22,17.5,21.6,17.8,21,18C20.5,18.1,19.9,18.2,19.2,18.2z"/>
				<path id="Shape_2_" class="st0" d="M26.8,5.5h1.9V8c0.3-0.4,0.6-0.7,0.9-1.1c0.3-0.3,0.7-0.6,1.1-0.9C31,5.8,31.5,5.6,32,5.5
					c0.5-0.2,1-0.2,1.6-0.2c0.8,0,1.5,0.2,2.3,0.4c0.7,0.3,1.4,0.7,2,1.3s1.1,1.2,1.4,2c0.4,0.8,0.5,1.7,0.5,2.8v0.1
					c0,1-0.2,1.9-0.5,2.7c-0.4,0.8-0.8,1.5-1.4,2c-0.6,0.6-1.2,1-2,1.3c-0.7,0.3-1.5,0.4-2.3,0.4c-0.6,0-1.2-0.1-1.6-0.2
					c-0.5-0.2-1-0.3-1.3-0.6c-0.4-0.2-0.8-0.5-1.1-0.8c-0.3-0.3-0.6-0.7-0.9-1v6.3h-1.9L26.8,5.5L26.8,5.5z M33.2,16.5
					c0.6,0,1.2-0.1,1.8-0.3c0.5-0.2,1-0.5,1.4-0.9c0.4-0.4,0.7-0.9,1-1.5c0.3-0.6,0.4-1.3,0.4-2v-0.1c0-0.7-0.1-1.4-0.4-2
					c-0.3-0.6-0.6-1.1-1-1.5c-0.4-0.4-0.9-0.7-1.4-1c-0.5-0.2-1.1-0.3-1.8-0.3c-0.6,0-1.2,0.1-1.7,0.3c-0.5,0.2-1.1,0.6-1.5,1
					c-0.4,0.4-0.8,0.9-1.1,1.5c-0.3,0.6-0.4,1.2-0.4,2v0.1c0,0.7,0.1,1.4,0.4,2c0.3,0.6,0.6,1.1,1.1,1.5c0.4,0.4,0.9,0.7,1.5,1
					C32.1,16.5,32.7,16.5,33.2,16.5z"/>
				<path id="Shape_3_" class="st0" d="M46.5,18.2c-0.6,0-1.2-0.1-1.8-0.2c-0.6-0.2-1.1-0.4-1.5-0.7c-0.4-0.3-0.8-0.7-1.1-1.2
					c-0.3-0.5-0.4-1.1-0.4-1.7v-0.1c0-0.7,0.1-1.3,0.4-1.8c0.3-0.5,0.6-0.9,1.1-1.3c0.5-0.3,1.1-0.6,1.8-0.8
					c0.7-0.2,1.4-0.3,2.2-0.3c0.8,0,1.5,0.1,2.1,0.2c0.6,0.1,1.2,0.2,1.8,0.4v-0.4c0-1.1-0.3-2-1-2.5c-0.7-0.6-1.6-0.9-2.8-0.9
					c-0.8,0-1.5,0.1-2.1,0.2c-0.6,0.2-1.2,0.4-1.8,0.7l-0.6-1.5c0.7-0.3,1.4-0.6,2.2-0.8s1.6-0.3,2.5-0.3c1.8,0,3.2,0.5,4.2,1.4
					c0.9,0.9,1.3,2.1,1.3,3.7V18h-1.9v-1.9c-0.4,0.6-1.1,1.1-1.8,1.5C48.6,18,47.7,18.2,46.5,18.2z M46.9,16.7
					c0.6,0,1.2-0.1,1.7-0.2c0.5-0.2,1-0.4,1.3-0.7c0.4-0.3,0.7-0.7,0.9-1.1c0.2-0.4,0.3-0.9,0.3-1.4v-1.1c-0.5-0.1-1-0.2-1.6-0.4
					c-0.6-0.1-1.3-0.2-2.1-0.2c-1.2,0-2.1,0.2-2.8,0.7c-0.6,0.5-1,1.1-1,1.8v0.1c0,0.4,0.1,0.7,0.3,1.1s0.4,0.6,0.7,0.8
					c0.3,0.2,0.6,0.4,1,0.5C46.1,16.6,46.5,16.7,46.9,16.7z"/>
				<path id="Shape_4_" class="st0" d="M62.3,18.3c-1,0-1.8-0.2-2.6-0.5c-0.8-0.3-1.5-0.8-2.1-1.4c-0.6-0.6-1.1-1.3-1.4-2.1
					c-0.3-0.8-0.5-1.6-0.5-2.5v-0.1c0-0.9,0.2-1.7,0.5-2.5c0.3-0.8,0.8-1.5,1.4-2.1s1.3-1.1,2.1-1.4c0.8-0.3,1.7-0.5,2.6-0.5
					c0.6,0,1.2,0.1,1.7,0.2c0.5,0.1,1,0.3,1.4,0.5c0.4,0.2,0.8,0.4,1.2,0.7c0.4,0.3,0.7,0.6,1,0.9l-1.3,1.3c-0.5-0.5-1.1-1-1.7-1.3
					s-1.3-0.6-2.2-0.6c-0.6,0-1.2,0.1-1.8,0.4c-0.6,0.2-1.1,0.6-1.5,1c-0.4,0.4-0.7,1-1,1.5c-0.2,0.6-0.4,1.2-0.4,1.9v0.1
					c0,0.7,0.1,1.3,0.4,1.9c0.3,0.6,0.6,1.1,1,1.5c0.4,0.4,0.9,0.8,1.5,1.1c0.6,0.2,1.2,0.4,1.9,0.4c0.8,0,1.6-0.2,2.2-0.5
					c0.6-0.3,1.2-0.8,1.7-1.3l1.2,1.1c-0.6,0.7-1.4,1.3-2.2,1.7C64.6,18,63.6,18.3,62.3,18.3z"/>
				<path id="Shape_5_" class="st0" d="M70.2,0.7h2.2v2h-2.2V0.7z M70.3,5.5h1.9V18h-1.9V5.5z"/>
				<path id="Shape_6_" class="st0" d="M82,18.3c-1,0-1.9-0.2-2.7-0.5c-0.8-0.3-1.5-0.8-2.1-1.4c-0.6-0.6-1.1-1.3-1.4-2
					c-0.3-0.8-0.5-1.6-0.5-2.5v-0.1c0-0.9,0.2-1.7,0.5-2.5c0.3-0.8,0.8-1.5,1.4-2.1s1.3-1.1,2.1-1.4c0.8-0.3,1.7-0.5,2.7-0.5
					c1,0,1.9,0.2,2.7,0.5s1.5,0.8,2.1,1.4c0.6,0.6,1.1,1.3,1.4,2c0.3,0.8,0.5,1.6,0.5,2.5v0.1c0,0.9-0.2,1.7-0.5,2.5
					c-0.4,0.8-0.8,1.5-1.4,2.1c-0.6,0.6-1.3,1.1-2.1,1.4C83.8,18.1,82.9,18.3,82,18.3z M82,16.6c0.7,0,1.3-0.1,1.9-0.4
					c0.6-0.2,1.1-0.6,1.5-1.1c0.4-0.4,0.7-0.9,1-1.5c0.2-0.6,0.4-1.2,0.4-1.9v-0.1c0-0.7-0.1-1.3-0.4-1.9c-0.3-0.6-0.6-1.1-1-1.5
					c-0.4-0.4-0.9-0.8-1.5-1.1C83.3,7,82.6,6.8,82,6.8c-0.7,0-1.3,0.1-1.9,0.4c-0.6,0.2-1.1,0.6-1.5,1.1c-0.4,0.4-0.7,1-1,1.5
					c-0.2,0.6-0.4,1.2-0.4,1.9v0.1c0,0.7,0.1,1.3,0.4,1.9c0.3,0.6,0.6,1.1,1,1.5c0.4,0.4,0.9,0.8,1.5,1.1
					C80.7,16.5,81.3,16.6,82,16.6z"/>
				<path id="Shape_7_" class="st0" d="M131.7,18.3c-1,0-1.8-0.2-2.6-0.5s-1.5-0.8-2.1-1.4c-0.6-0.6-1.1-1.3-1.4-2.1
					c-0.3-0.8-0.5-1.6-0.5-2.5v-0.1c0-0.9,0.2-1.7,0.5-2.5c0.3-0.8,0.8-1.5,1.4-2.1c0.6-0.6,1.3-1.1,2.1-1.4
					c0.8-0.3,1.7-0.5,2.6-0.5c0.6,0,1.2,0.1,1.7,0.2c0.5,0.1,1,0.3,1.4,0.5c0.4,0.2,0.8,0.4,1.2,0.7c0.4,0.3,0.7,0.6,1,0.9l-1.3,1.3
					c-0.5-0.5-1.1-1-1.7-1.3s-1.3-0.6-2.2-0.6c-0.6,0-1.2,0.1-1.8,0.4c-0.6,0.2-1.1,0.6-1.5,1c-0.4,0.4-0.7,1-1,1.5
					c-0.2,0.6-0.4,1.2-0.4,1.9v0.1c0,0.7,0.1,1.3,0.4,1.9c0.3,0.6,0.6,1.1,1,1.5c0.4,0.4,0.9,0.8,1.5,1.1c0.6,0.2,1.2,0.4,1.9,0.4
					c0.8,0,1.6-0.2,2.2-0.5c0.6-0.3,1.2-0.8,1.7-1.3l1.2,1.1c-0.6,0.7-1.4,1.3-2.2,1.7C133.9,18,132.9,18.3,131.7,18.3z"/>
				<path id="Shape_8_" class="st0" d="M139.7,5.5h1.9V18h-1.9V5.5z M142.2,0.1l2,0.9l-2.8,2.6h-1.6L142.2,0.1z"/>
				<polygon id="Shape_9_" class="st0" points="144.2,5.5 146.3,5.5 150.6,15.8 155,5.5 157.1,5.5 151.5,18 149.8,18 				"/>
				<path id="Shape_10_" class="st0" d="M159.5,0.7h2.2v2h-2.2V0.7z M159.6,5.5h1.9V18h-1.9V5.5z"/>
				<path id="Shape_11_" class="st0" d="M171.2,18.3c-1,0-1.8-0.2-2.6-0.5s-1.5-0.8-2.1-1.4c-0.6-0.6-1.1-1.3-1.4-2.1
					c-0.3-0.8-0.5-1.6-0.5-2.5v-0.1c0-0.9,0.2-1.7,0.5-2.5c0.3-0.8,0.8-1.5,1.4-2.1s1.3-1.1,2.1-1.4c0.8-0.3,1.7-0.5,2.6-0.5
					c0.6,0,1.2,0.1,1.7,0.2c0.5,0.1,1,0.3,1.4,0.5c0.4,0.2,0.8,0.4,1.2,0.7c0.4,0.3,0.7,0.6,1,0.9l-1.3,1.3c-0.5-0.5-1.1-1-1.7-1.3
					s-1.3-0.6-2.2-0.6c-0.6,0-1.2,0.1-1.8,0.4c-0.6,0.2-1.1,0.6-1.5,1s-0.7,1-1,1.5c-0.2,0.6-0.4,1.2-0.4,1.9v0.1
					c0,0.7,0.1,1.3,0.4,1.9c0.3,0.6,0.6,1.1,1,1.5c0.4,0.4,0.9,0.8,1.5,1.1c0.6,0.2,1.2,0.4,1.9,0.4c0.8,0,1.6-0.2,2.2-0.5
					c0.6-0.3,1.2-0.8,1.7-1.3l1.2,1.1c-0.6,0.7-1.4,1.3-2.2,1.7C173.4,18,172.4,18.3,171.2,18.3z"/>
				<path id="Shape_12_" class="st0" d="M184.9,18.3c-1,0-1.9-0.2-2.7-0.5s-1.5-0.8-2.1-1.4c-0.6-0.6-1.1-1.3-1.4-2
					c-0.3-0.8-0.5-1.6-0.5-2.5v-0.1c0-0.9,0.2-1.7,0.5-2.5c0.3-0.8,0.8-1.5,1.4-2.1s1.3-1.1,2.1-1.4c0.8-0.3,1.7-0.5,2.7-0.5
					c1,0,1.9,0.2,2.7,0.5s1.5,0.8,2.1,1.4s1.1,1.3,1.4,2c0.3,0.8,0.5,1.6,0.5,2.5v0.1c0,0.9-0.2,1.7-0.5,2.5
					c-0.4,0.8-0.8,1.5-1.4,2.1s-1.3,1.1-2.1,1.4C186.8,18.1,185.9,18.3,184.9,18.3z M185,16.6c0.7,0,1.3-0.1,1.9-0.4
					c0.6-0.2,1.1-0.6,1.5-1.1c0.4-0.4,0.7-0.9,1-1.5c0.2-0.6,0.4-1.2,0.4-1.9v-0.1c0-0.7-0.1-1.3-0.4-1.9c-0.3-0.6-0.6-1.1-1-1.5
					c-0.4-0.4-0.9-0.8-1.5-1.1c-0.6-0.2-1.2-0.4-1.9-0.4c-0.7,0-1.3,0.1-1.9,0.4c-0.6,0.2-1.1,0.6-1.5,1.1c-0.4,0.4-0.7,1-1,1.5
					c-0.2,0.6-0.4,1.2-0.4,1.9v0.1c0,0.7,0.1,1.3,0.4,1.9c0.3,0.6,0.6,1.1,1,1.5c0.4,0.4,0.9,0.8,1.5,1.1
					C183.6,16.5,184.3,16.6,185,16.6z"/>
			</g>
			<g id="Group_1_" transform="translate(91.000000, 0.000000)">
				<path id="Shape_13_" class="st1" d="M8.3,23c-4.8,1.5-6.9-2.2-7.5-3.5c1.7,5.1,6.1,9,11.6,10c0.1-0.6,0.2-1.2,0.3-1.9
					C11,24.7,9.3,23.5,8.3,23z"/>
				<path id="Shape_14_" class="st1" d="M20.1,22.7c-0.5,0.1-1.1,0.2-1.6,0.3c-2,0.6-3.4,1.6-4.2,3.2c-0.1,1.2-0.1,2.3-0.1,3.5
					c0.3,0,0.6,0,0.8,0c6,0,11.1-3.5,13.5-8.5C25.3,25.3,21.5,23.5,20.1,22.7z M17.8,25.9c0,0,3-0.9,3.8,2.2
					C18.4,28.9,17.8,25.9,17.8,25.9z"/>
				<path id="Shape_15_" class="st1" d="M8.7,22.2c1,0.5,2.6,1.7,4.2,4.1c0.1-0.3,0.1-0.6,0.2-0.8c0.1-0.4,0.2-0.8,0.3-1.2
					c-1.5-2-1.5-5.7-1.5-5.9L12,15c-1.1-1.3-4.2-5.9,1.5-9.8c4.5,4.9,0.9,8.6-0.6,9.8l-0.2,3.4c0,0,0,2.9,0.9,4.8
					c0.3-0.9,0.6-1.8,0.9-2.6c0.3-0.8,0.7-1.5,1.2-2.2c0.1-0.2,0.2-0.3,0.2-0.4c-0.1-1.7,0.2-8.2,8-8.9c0.5,7.2-5.1,8.8-7.2,9.2
					c-0.7,1.3-1.9,3.9-2.3,6.1c1.5-1.8,3.8-2.4,5.5-2.6c1-1.2,4.3-4,8.6-0.8c0.9-1.9,1.4-4,1.4-6.2c0-8.2-6.7-14.8-14.9-14.8
					S0.1,6.8,0.1,15c0,1.4,0.2,2.8,0.6,4.2C1.1,18.9,6.3,17,8.7,22.2z M21.4,1.7c2.3,6.5-4.1,8.4-4.1,8.4S14.9,4,21.4,1.7z M3.4,9.9
					c0,0,6.3,1.1,4.8,7.6C1.7,16,3.4,9.9,3.4,9.9z"/>
			</g>
		</g>
	</g>
</g>
</svg>
