<?xml version="1.0" encoding="utf-8"?>
<!-- Generator: Adobe Illustrator 22.1.0, SVG Export Plug-In . SVG Version: 6.00 Build 0)  -->
<svg version="1.1" id="Layer_1" xmlns="http://www.w3.org/2000/svg" xmlns:xlink="http://www.w3.org/1999/xlink" x="0px" y="0px"
	 viewBox="0 0 384 384" style="enable-background:new 0 0 384 384;" xml:space="preserve">
<style type="text/css">
	.st0{fill:#F9B903;}
</style>
<g>
	<path class="st0" d="M106.6,295c-61.6,18.9-88.6-29-95.9-44.7C32,316.3,88.9,366.7,158.6,378.8c1.2-8.1,2-16.1,3.6-24.2
		C141.6,317.9,119.5,301.8,106.6,295z"/>
	<path class="st0" d="M257.3,291.4c-6.4,0.8-13.7,2-21,4c-25.4,7.3-43.1,21-53.6,41.9c-1.2,14.9-1.6,29.8-1.6,44.7
		c3.6,0,7.3,0.4,10.5,0.4c76.6,0,142.2-45.1,172.4-110C323.3,325.2,275,302.2,257.3,291.4z M228.3,333.3c0,0,37.9-11.3,47.9,29
		C235.9,371.9,228.3,333.3,228.3,333.3z"/>
	<path class="st0" d="M111.8,285.3c12.9,6.8,33.4,21.4,53.2,52.8c0.8-3.6,1.2-7.3,2-10.9c1.2-5.2,2.4-10.9,3.6-16.1
		c-19.3-25.8-18.9-73.3-18.9-75.7l2.4-43.1c-14.1-16.9-53.6-75.7,18.5-126.1c58,63.3,10.9,111.2-7.7,126.1l-2,43.9
		c0,0.4-0.4,37.5,12.1,61.2c3.2-11.3,7.3-22.6,12.1-33.4c4.4-9.7,9.3-19.3,15.3-27.8c0.8-2,2-3.6,2.8-5.2
		c-0.8-21.8,2.8-105.6,102.3-114.4c6.4,93.5-65.3,114-92.3,118.5c-8.9,17.3-24.6,50.8-29.8,79c19.7-22.6,47.9-30.6,69.7-33
		c13.3-14.9,54.8-51.6,109.6-9.7c11.3-24.2,17.3-51.2,17.3-79.4C382.2,86.7,296.8,1.7,192,1.7S1.8,87.1,1.8,191.8
		c0,18.5,2.8,36.7,7.7,54C15.1,243,80.8,218,111.8,285.3z M274.6,21.4c29,83.8-52.4,108.4-52.4,108.4S191.2,50.4,274.6,21.4z
		 M44.5,126.2c0,0,80.6,14.5,61.6,97.9C23.2,205.1,44.5,126.2,44.5,126.2z"/>
</g>
</svg>
