<?xml version="1.0" encoding="UTF-8"?>
<svg width="192px" height="30px" viewBox="0 0 192 30" version="1.1" xmlns="http://www.w3.org/2000/svg" xmlns:xlink="http://www.w3.org/1999/xlink">
    <!-- Generator: Sketch 51.1 (57501) - http://www.bohemiancoding.com/sketch -->
    <title>logo</title>
    <desc>Created with Sketch.</desc>
    <defs></defs>
    <g id="Welcome" stroke="none" stroke-width="1" fill="none" fill-rule="evenodd">
        <g id="Desktop" transform="translate(-72.000000, -16.000000)" fill-rule="nonzero">
            <g id="logo" transform="translate(72.000000, 16.000000)">
                <g id="Group" transform="translate(0.000000, 3.000000)" fill="#9B9B9B">
                    <path d="M1.952,12.4873239 C2.016,13.1380282 2.176,13.7267606 2.464,14.2535211 C2.72,14.7802817 3.072,15.2140845 3.488,15.5549296 C3.904,15.8957746 4.384,16.1746479 4.896,16.3605634 C5.408,16.5464789 5.952,16.6394366 6.528,16.6394366 C7.424,16.6394366 8.192,16.484507 8.832,16.143662 C9.472,15.8338028 10.048,15.4 10.592,14.8732394 L11.776,15.9267606 C11.136,16.6394366 10.4,17.1971831 9.568,17.6309859 C8.736,18.0647887 7.712,18.2816901 6.464,18.2816901 C5.568,18.2816901 4.736,18.1267606 3.968,17.8169014 C3.2,17.5070423 2.496,17.0732394 1.92,16.484507 C1.344,15.9267606 0.864,15.2140845 0.544,14.4084507 C0.16,13.571831 0,12.7042254 0,11.7126761 C0,10.8140845 0.16,9.94647887 0.448,9.17183099 C0.768,8.36619718 1.184,7.68450704 1.728,7.09577465 C2.272,6.50704225 2.944,6.04225352 3.68,5.70140845 C4.448,5.36056338 5.28,5.2056338 6.176,5.2056338 C7.136,5.2056338 7.968,5.3915493 8.736,5.73239437 C9.472,6.07323944 10.112,6.53802817 10.624,7.15774648 C11.136,7.74647887 11.52,8.45915493 11.808,9.26478873 C12.064,10.0704225 12.192,10.9380282 12.192,11.8366197 C12.192,11.9295775 12.192,12.0225352 12.192,12.115493 C12.192,12.2084507 12.192,12.3323944 12.16,12.4873239 L1.952,12.4873239 Z M10.24,10.9380282 C10.176,10.3802817 10.08,9.85352113 9.856,9.32676056 C9.664,8.83098592 9.376,8.36619718 9.056,7.9943662 C8.704,7.62253521 8.288,7.31267606 7.808,7.09577465 C7.328,6.87887324 6.752,6.75492958 6.112,6.75492958 C5.568,6.75492958 5.056,6.84788732 4.576,7.06478873 C4.096,7.28169014 3.68,7.56056338 3.296,7.93239437 C2.944,8.30422535 2.624,8.73802817 2.4,9.26478873 C2.144,9.7915493 2.016,10.3183099 1.952,10.9070423 L10.24,10.9070423 L10.24,10.9380282 Z" id="Shape"></path>
                    <path d="M19.2,18.1887324 C18.272,18.1887324 17.344,18.0338028 16.384,17.6929577 C15.424,17.3521127 14.592,16.9183099 13.856,16.3605634 L14.816,15.028169 C15.52,15.5549296 16.256,15.9267606 16.992,16.2056338 C17.76,16.484507 18.496,16.6084507 19.264,16.6084507 C20.032,16.6084507 20.672,16.4225352 21.184,16.0816901 C21.696,15.7408451 21.92,15.2450704 21.92,14.6253521 L21.92,14.5633803 C21.92,14.2535211 21.824,14.0056338 21.664,13.7577465 C21.504,13.5408451 21.248,13.3239437 20.96,13.1690141 C20.672,13.0140845 20.32,12.8591549 19.936,12.7352113 C19.552,12.6112676 19.136,12.4873239 18.72,12.3633803 C18.208,12.2084507 17.728,12.0535211 17.216,11.8985915 C16.704,11.743662 16.256,11.5267606 15.84,11.2478873 C15.424,11 15.104,10.6591549 14.848,10.2873239 C14.592,9.91549296 14.464,9.41971831 14.464,8.83098592 L14.464,8.76901408 C14.464,8.24225352 14.56,7.74647887 14.784,7.31267606 C15.008,6.87887324 15.296,6.47605634 15.68,6.16619718 C16.064,5.85633803 16.544,5.6084507 17.088,5.45352113 C17.632,5.29859155 18.208,5.2056338 18.848,5.2056338 C19.648,5.2056338 20.448,5.32957746 21.28,5.57746479 C22.08,5.82535211 22.848,6.16619718 23.488,6.56901408 L22.624,7.96338028 C22.016,7.5915493 21.408,7.31267606 20.736,7.09577465 C20.064,6.87887324 19.424,6.75492958 18.816,6.75492958 C18.048,6.75492958 17.44,6.94084507 16.992,7.28169014 C16.544,7.62253521 16.32,8.05633803 16.32,8.58309859 L16.32,8.67605634 C16.32,8.95492958 16.416,9.23380282 16.608,9.45070423 C16.8,9.66760563 17.024,9.85352113 17.344,10.0084507 C17.664,10.1633803 18.016,10.3183099 18.4,10.4422535 C18.784,10.5661972 19.2,10.6901408 19.648,10.8140845 C20.16,10.9690141 20.64,11.1239437 21.12,11.3098592 C21.6,11.4957746 22.048,11.7126761 22.464,11.9915493 C22.88,12.2704225 23.168,12.5802817 23.424,12.9830986 C23.68,13.3549296 23.776,13.8507042 23.776,14.4084507 L23.776,14.4704225 C23.776,15.0591549 23.648,15.5859155 23.424,16.0507042 C23.168,16.515493 22.848,16.8873239 22.464,17.228169 C22.048,17.5380282 21.568,17.7859155 21.024,17.971831 C20.48,18.1267606 19.872,18.1887324 19.2,18.1887324 Z" id="Shape"></path>
                    <path d="M26.752,5.45352113 L28.672,5.45352113 L28.672,7.96338028 C28.928,7.5915493 29.248,7.25070423 29.568,6.90985915 C29.888,6.56901408 30.24,6.29014085 30.656,6.04225352 C31.04,5.7943662 31.488,5.57746479 32,5.45352113 C32.48,5.29859155 33.024,5.23661972 33.632,5.23661972 C34.4,5.23661972 35.136,5.3915493 35.904,5.67042254 C36.64,5.94929577 37.312,6.38309859 37.888,6.94084507 C38.464,7.49859155 38.944,8.18028169 39.296,8.95492958 C39.648,9.76056338 39.808,10.6591549 39.808,11.7126761 L39.808,11.7746479 C39.808,12.7971831 39.648,13.6957746 39.296,14.5014085 C38.944,15.3070423 38.496,15.9887324 37.92,16.5464789 C37.344,17.1042254 36.704,17.5380282 35.936,17.8169014 C35.2,18.1267606 34.432,18.2507042 33.664,18.2507042 C33.056,18.2507042 32.512,18.1887324 32.032,18.0338028 C31.52,17.8788732 31.072,17.6929577 30.688,17.4450704 C30.304,17.1971831 29.92,16.9183099 29.6,16.6084507 C29.28,16.2985915 28.992,15.9577465 28.736,15.5859155 L28.736,21.8450704 L26.816,21.8450704 L26.816,5.45352113 L26.752,5.45352113 Z M33.248,16.5464789 C33.856,16.5464789 34.464,16.4225352 35.008,16.2056338 C35.552,15.9887324 36.032,15.6788732 36.448,15.2760563 C36.864,14.8732394 37.184,14.3774648 37.408,13.7577465 C37.664,13.1690141 37.76,12.4873239 37.76,11.7126761 L37.76,11.6507042 C37.76,10.9070423 37.632,10.256338 37.408,9.63661972 C37.152,9.04788732 36.832,8.52112676 36.416,8.11830986 C36,7.68450704 35.52,7.37464789 34.976,7.15774648 C34.432,6.94084507 33.856,6.81690141 33.216,6.81690141 C32.608,6.81690141 32.032,6.94084507 31.488,7.15774648 C30.944,7.4056338 30.432,7.71549296 29.984,8.14929577 C29.536,8.58309859 29.184,9.07887324 28.928,9.66760563 C28.672,10.256338 28.544,10.9070423 28.544,11.6197183 L28.544,11.6816901 C28.544,12.3943662 28.672,13.0760563 28.928,13.6647887 C29.184,14.2535211 29.536,14.7802817 29.984,15.1830986 C30.432,15.6169014 30.912,15.9267606 31.488,16.1746479 C32.096,16.4535211 32.672,16.5464789 33.248,16.5464789 Z" id="Shape"></path>
                    <path d="M46.528,18.2197183 C45.92,18.2197183 45.344,18.1267606 44.768,17.971831 C44.192,17.8169014 43.68,17.5690141 43.232,17.228169 C42.784,16.8873239 42.432,16.484507 42.144,16.0197183 C41.856,15.5239437 41.728,14.9661972 41.728,14.315493 L41.728,14.2535211 C41.728,13.571831 41.856,12.9830986 42.112,12.4873239 C42.368,11.9915493 42.752,11.5577465 43.232,11.2169014 C43.712,10.8760563 44.32,10.628169 44.992,10.4422535 C45.664,10.256338 46.4,10.1633803 47.232,10.1633803 C48.064,10.1633803 48.768,10.2253521 49.376,10.3183099 C49.984,10.4112676 50.592,10.5352113 51.168,10.6901408 L51.168,10.3183099 C51.168,9.2028169 50.848,8.36619718 50.176,7.8084507 C49.504,7.25070423 48.576,6.94084507 47.36,6.94084507 C46.592,6.94084507 45.888,7.03380282 45.28,7.18873239 C44.672,7.34366197 44.032,7.56056338 43.456,7.83943662 L42.88,6.32112676 C43.584,5.98028169 44.32,5.73239437 45.056,5.54647887 C45.792,5.36056338 46.624,5.26760563 47.584,5.26760563 C49.408,5.26760563 50.816,5.73239437 51.744,6.63098592 C52.64,7.49859155 53.088,8.73802817 53.088,10.3183099 L53.088,17.971831 L51.2,17.971831 L51.2,16.1126761 C50.752,16.6704225 50.144,17.1661972 49.376,17.6 C48.608,18.0028169 47.68,18.2197183 46.528,18.2197183 Z M46.912,16.7014085 C47.52,16.7014085 48.064,16.6084507 48.576,16.4535211 C49.088,16.2985915 49.536,16.0507042 49.92,15.771831 C50.304,15.4619718 50.624,15.1211268 50.848,14.7183099 C51.072,14.315493 51.168,13.8507042 51.168,13.3549296 L51.168,12.2084507 C50.688,12.084507 50.144,11.9605634 49.536,11.8366197 C48.928,11.7126761 48.224,11.6816901 47.424,11.6816901 C46.24,11.6816901 45.312,11.8985915 44.64,12.3633803 C44,12.828169 43.648,13.4169014 43.648,14.1915493 L43.648,14.2535211 C43.648,14.6253521 43.744,14.9971831 43.904,15.3070423 C44.064,15.6169014 44.32,15.8647887 44.608,16.0816901 C44.896,16.2985915 45.248,16.4535211 45.632,16.5774648 C46.08,16.6394366 46.496,16.7014085 46.912,16.7014085 Z" id="Shape"></path>
                    <path d="M62.336,18.2507042 C61.376,18.2507042 60.512,18.0647887 59.712,17.7239437 C58.912,17.3830986 58.208,16.9183099 57.632,16.3295775 C57.056,15.7408451 56.576,15.0591549 56.256,14.2535211 C55.936,13.4788732 55.744,12.6422535 55.744,11.7746479 L55.744,11.7126761 C55.744,10.8140845 55.904,9.97746479 56.256,9.2028169 C56.576,8.42816901 57.056,7.71549296 57.632,7.12676056 C58.208,6.53802817 58.912,6.07323944 59.712,5.70140845 C60.512,5.36056338 61.408,5.17464789 62.336,5.17464789 C62.944,5.17464789 63.52,5.23661972 64,5.32957746 C64.512,5.45352113 64.96,5.6084507 65.376,5.7943662 C65.792,6.01126761 66.176,6.22816901 66.528,6.50704225 C66.88,6.78591549 67.2,7.06478873 67.488,7.37464789 L66.208,8.67605634 C65.696,8.14929577 65.12,7.71549296 64.512,7.34366197 C63.904,6.97183099 63.168,6.78591549 62.272,6.78591549 C61.632,6.78591549 61.024,6.90985915 60.448,7.15774648 C59.872,7.4056338 59.392,7.74647887 58.976,8.18028169 C58.56,8.61408451 58.24,9.14084507 58.016,9.72957746 C57.792,10.3183099 57.664,10.9380282 57.664,11.6197183 L57.664,11.6816901 C57.664,12.3633803 57.792,12.9830986 58.016,13.571831 C58.272,14.1605634 58.592,14.6873239 59.008,15.1211268 C59.424,15.5549296 59.936,15.8957746 60.512,16.1746479 C61.088,16.4225352 61.728,16.5464789 62.4,16.5464789 C63.232,16.5464789 63.968,16.3605634 64.608,16.0197183 C65.248,15.6788732 65.824,15.2140845 66.336,14.6873239 L67.552,15.8028169 C66.912,16.515493 66.176,17.1042254 65.344,17.5380282 C64.576,18.0338028 63.552,18.2507042 62.336,18.2507042 Z" id="Shape"></path>
                    <path d="M70.176,0.681690141 L72.384,0.681690141 L72.384,2.72676056 L70.176,2.72676056 L70.176,0.681690141 Z M70.304,5.45352113 L72.224,5.45352113 L72.224,17.971831 L70.304,17.971831 L70.304,5.45352113 Z" id="Shape"></path>
                    <path d="M81.952,18.2507042 C80.992,18.2507042 80.096,18.0647887 79.296,17.7239437 C78.496,17.3830986 77.76,16.9183099 77.184,16.3295775 C76.576,15.7408451 76.128,15.0591549 75.776,14.284507 C75.456,13.5098592 75.264,12.6732394 75.264,11.7746479 L75.264,11.7126761 C75.264,10.8140845 75.424,9.97746479 75.776,9.2028169 C76.096,8.42816901 76.576,7.71549296 77.184,7.12676056 C77.792,6.53802817 78.496,6.07323944 79.328,5.70140845 C80.16,5.36056338 81.056,5.17464789 82.048,5.17464789 C83.008,5.17464789 83.904,5.36056338 84.736,5.70140845 C85.568,6.04225352 86.272,6.50704225 86.88,7.09577465 C87.488,7.68450704 87.936,8.36619718 88.288,9.14084507 C88.608,9.91549296 88.8,10.7521127 88.8,11.6507042 L88.8,11.7126761 C88.8,12.6112676 88.64,13.4478873 88.288,14.2225352 C87.936,14.9971831 87.488,15.7098592 86.88,16.2985915 C86.272,16.8873239 85.568,17.3521127 84.736,17.7239437 C83.84,18.0647887 82.944,18.2507042 81.952,18.2507042 Z M82.016,16.5774648 C82.72,16.5774648 83.36,16.4535211 83.936,16.2056338 C84.512,15.9577465 85.024,15.6169014 85.44,15.1521127 C85.856,14.7183099 86.176,14.2225352 86.4,13.6338028 C86.624,13.0450704 86.752,12.4253521 86.752,11.7746479 L86.752,11.7126761 C86.752,11.0309859 86.624,10.4112676 86.4,9.82253521 C86.144,9.23380282 85.824,8.70704225 85.376,8.27323944 C84.928,7.83943662 84.448,7.46760563 83.84,7.21971831 C83.264,6.97183099 82.624,6.84788732 81.952,6.84788732 C81.248,6.84788732 80.608,6.97183099 80.032,7.21971831 C79.456,7.46760563 78.944,7.8084507 78.56,8.27323944 C78.144,8.70704225 77.824,9.23380282 77.6,9.82253521 C77.376,10.4112676 77.248,11.0309859 77.248,11.6816901 L77.248,11.743662 C77.248,12.4253521 77.376,13.0450704 77.6,13.6338028 C77.856,14.2225352 78.176,14.7183099 78.592,15.1830986 C79.008,15.6169014 79.52,15.9577465 80.096,16.2366197 C80.704,16.4535211 81.344,16.5774648 82.016,16.5774648 Z" id="Shape"></path>
                    <path d="M131.68,18.2507042 C130.72,18.2507042 129.856,18.0647887 129.056,17.7239437 C128.256,17.3830986 127.552,16.9183099 126.976,16.3295775 C126.4,15.7408451 125.92,15.0591549 125.6,14.2535211 C125.28,13.4788732 125.088,12.6422535 125.088,11.7746479 L125.088,11.7126761 C125.088,10.8140845 125.248,9.97746479 125.6,9.2028169 C125.92,8.42816901 126.4,7.71549296 126.976,7.12676056 C127.552,6.53802817 128.256,6.07323944 129.056,5.70140845 C129.856,5.36056338 130.752,5.17464789 131.68,5.17464789 C132.288,5.17464789 132.864,5.23661972 133.344,5.32957746 C133.856,5.45352113 134.304,5.6084507 134.72,5.7943662 C135.136,6.01126761 135.52,6.22816901 135.872,6.50704225 C136.224,6.78591549 136.544,7.06478873 136.832,7.37464789 L135.552,8.67605634 C135.04,8.14929577 134.464,7.71549296 133.856,7.34366197 C133.248,6.97183099 132.512,6.78591549 131.616,6.78591549 C130.976,6.78591549 130.368,6.90985915 129.792,7.15774648 C129.216,7.4056338 128.736,7.74647887 128.32,8.18028169 C127.904,8.61408451 127.584,9.14084507 127.36,9.72957746 C127.136,10.3183099 127.008,10.9380282 127.008,11.6197183 L127.008,11.6816901 C127.008,12.3633803 127.136,12.9830986 127.36,13.571831 C127.616,14.1605634 127.936,14.6873239 128.352,15.1211268 C128.768,15.5549296 129.28,15.8957746 129.856,16.1746479 C130.432,16.4225352 131.072,16.5464789 131.744,16.5464789 C132.576,16.5464789 133.312,16.3605634 133.952,16.0197183 C134.592,15.6788732 135.168,15.2140845 135.68,14.6873239 L136.896,15.8028169 C136.256,16.515493 135.52,17.1042254 134.688,17.5380282 C133.92,18.0338028 132.896,18.2507042 131.68,18.2507042 Z" id="Shape"></path>
                    <path d="M139.68,5.45352113 L141.6,5.45352113 L141.6,17.971831 L139.68,17.971831 L139.68,5.45352113 Z M142.24,0.0929577465 L144.224,0.991549296 L141.408,3.5943662 L139.84,3.5943662 L142.24,0.0929577465 Z" id="Shape"></path>
                    <polygon id="Shape" points="144.16 5.45352113 146.272 5.45352113 150.624 15.8338028 154.976 5.45352113 157.056 5.45352113 151.456 18.0338028 149.76 18.0338028"></polygon>
                    <path d="M159.52,0.681690141 L161.728,0.681690141 L161.728,2.72676056 L159.52,2.72676056 L159.52,0.681690141 Z M159.648,5.45352113 L161.568,5.45352113 L161.568,17.971831 L159.648,17.971831 L159.648,5.45352113 Z" id="Shape"></path>
                    <path d="M171.232,18.2507042 C170.272,18.2507042 169.408,18.0647887 168.608,17.7239437 C167.808,17.3830986 167.104,16.9183099 166.528,16.3295775 C165.952,15.7408451 165.472,15.0591549 165.152,14.2535211 C164.832,13.4788732 164.64,12.6422535 164.64,11.7746479 L164.64,11.7126761 C164.64,10.8140845 164.8,9.97746479 165.152,9.2028169 C165.472,8.42816901 165.952,7.71549296 166.528,7.12676056 C167.104,6.53802817 167.808,6.07323944 168.608,5.70140845 C169.408,5.36056338 170.304,5.17464789 171.232,5.17464789 C171.84,5.17464789 172.416,5.23661972 172.896,5.32957746 C173.408,5.45352113 173.856,5.6084507 174.272,5.7943662 C174.688,6.01126761 175.072,6.22816901 175.424,6.50704225 C175.776,6.78591549 176.096,7.06478873 176.384,7.37464789 L175.104,8.67605634 C174.592,8.14929577 174.016,7.71549296 173.408,7.34366197 C172.8,6.97183099 172.064,6.78591549 171.168,6.78591549 C170.528,6.78591549 169.92,6.90985915 169.344,7.15774648 C168.768,7.4056338 168.288,7.74647887 167.872,8.18028169 C167.456,8.61408451 167.136,9.14084507 166.912,9.72957746 C166.688,10.3183099 166.56,10.9380282 166.56,11.6197183 L166.56,11.6816901 C166.56,12.3633803 166.688,12.9830986 166.912,13.571831 C167.168,14.1605634 167.488,14.6873239 167.904,15.1211268 C168.32,15.5549296 168.832,15.8957746 169.408,16.1746479 C169.984,16.4225352 170.624,16.5464789 171.296,16.5464789 C172.128,16.5464789 172.864,16.3605634 173.504,16.0197183 C174.144,15.6788732 174.72,15.2140845 175.232,14.6873239 L176.448,15.8028169 C175.808,16.515493 175.072,17.1042254 174.24,17.5380282 C173.44,18.0338028 172.448,18.2507042 171.232,18.2507042 Z" id="Shape"></path>
                    <path d="M184.928,18.2507042 C183.968,18.2507042 183.072,18.0647887 182.272,17.7239437 C181.472,17.3830986 180.736,16.9183099 180.16,16.3295775 C179.552,15.7408451 179.104,15.0591549 178.752,14.284507 C178.432,13.5098592 178.24,12.6732394 178.24,11.7746479 L178.24,11.7126761 C178.24,10.8140845 178.4,9.97746479 178.752,9.2028169 C179.072,8.42816901 179.552,7.71549296 180.16,7.12676056 C180.768,6.53802817 181.472,6.07323944 182.304,5.70140845 C183.136,5.36056338 184.032,5.17464789 185.024,5.17464789 C185.984,5.17464789 186.88,5.36056338 187.712,5.70140845 C188.544,6.04225352 189.248,6.50704225 189.856,7.09577465 C190.464,7.68450704 190.912,8.36619718 191.264,9.14084507 C191.584,9.91549296 191.776,10.7521127 191.776,11.6507042 L191.776,11.7126761 C191.776,12.6112676 191.616,13.4478873 191.264,14.2225352 C190.912,14.9971831 190.464,15.7098592 189.856,16.2985915 C189.248,16.8873239 188.544,17.3521127 187.712,17.7239437 C186.784,18.0647887 185.888,18.2507042 184.928,18.2507042 Z M184.96,16.5774648 C185.664,16.5774648 186.304,16.4535211 186.88,16.2056338 C187.456,15.9577465 187.968,15.6169014 188.384,15.1521127 C188.8,14.7183099 189.12,14.2225352 189.344,13.6338028 C189.568,13.0450704 189.696,12.4253521 189.696,11.7746479 L189.696,11.7126761 C189.696,11.0309859 189.568,10.4112676 189.344,9.82253521 C189.088,9.23380282 188.768,8.70704225 188.32,8.27323944 C187.872,7.83943662 187.392,7.46760563 186.784,7.21971831 C186.208,6.97183099 185.568,6.84788732 184.896,6.84788732 C184.192,6.84788732 183.552,6.97183099 182.976,7.21971831 C182.4,7.46760563 181.888,7.8084507 181.504,8.27323944 C181.088,8.70704225 180.768,9.23380282 180.544,9.82253521 C180.32,10.4112676 180.192,11.0309859 180.192,11.6816901 L180.192,11.743662 C180.192,12.4253521 180.32,13.0450704 180.544,13.6338028 C180.8,14.2225352 181.12,14.7183099 181.536,15.1830986 C181.952,15.6169014 182.464,15.9577465 183.04,16.2366197 C183.648,16.4535211 184.288,16.5774648 184.96,16.5774648 Z" id="Shape"></path>
                </g>
                <g id="Group" transform="translate(91.000000, 0.000000)" fill="#F9B903">
                    <path d="M8.27368421,22.96875 C3.44210526,24.4375 1.32631579,20.71875 0.757894737,19.5 C2.43157895,24.625 6.88421053,28.53125 12.3473684,29.46875 C12.4421053,28.84375 12.5052632,28.21875 12.6315789,27.59375 C11.0210526,24.75 9.28421053,23.5 8.27368421,22.96875 Z" id="Shape"></path>
                    <path d="M20.0842105,22.6875 C19.5789474,22.75 19.0105263,22.84375 18.4421053,23 C16.4526316,23.5625 15.0631579,24.625 14.2421053,26.25 C14.1473684,27.40625 14.1157895,28.5625 14.1157895,29.71875 C14.4,29.71875 14.6842105,29.75 14.9368421,29.75 C20.9368421,29.75 26.0842105,26.25 28.4526316,21.21875 C25.2631579,25.3125 21.4736842,23.53125 20.0842105,22.6875 Z M17.8105263,25.9375 C17.8105263,25.9375 20.7789474,25.0625 21.5684211,28.1875 C18.4105263,28.9375 17.8105263,25.9375 17.8105263,25.9375 Z" id="Shape"></path>
                    <path d="M8.68421053,22.21875 C9.69473684,22.75 11.3052632,23.875 12.8526316,26.3125 C12.9157895,26.03125 12.9473684,25.75 13.0105263,25.46875 C13.1052632,25.0625 13.2,24.625 13.2947368,24.21875 C11.7789474,22.21875 11.8105263,18.53125 11.8105263,18.34375 L12,15 C10.8947368,13.6875 7.8,9.125 13.4526316,5.21875 C18,10.125 14.3052632,13.84375 12.8526316,15 L12.6947368,18.40625 C12.6947368,18.4375 12.6631579,21.3125 13.6421053,23.15625 C13.8947368,22.28125 14.2105263,21.40625 14.5894737,20.5625 C14.9368421,19.8125 15.3157895,19.0625 15.7894737,18.40625 C15.8526316,18.25 15.9473684,18.125 16.0105263,18 C15.9473684,16.3125 16.2315789,9.8125 24.0315789,9.125 C24.5368421,16.375 18.9157895,17.96875 16.8,18.3125 C16.1052632,19.65625 14.8736842,22.25 14.4631579,24.4375 C16.0105263,22.6875 18.2210526,22.0625 19.9263158,21.875 C20.9684211,20.71875 24.2210526,17.875 28.5157895,21.125 C29.4,19.25 29.8736842,17.15625 29.8736842,14.96875 C29.8736842,6.8125 23.1789474,0.21875 14.9684211,0.21875 C6.75789474,0.21875 0.0631578947,6.84375 0.0631578947,14.96875 C0.0631578947,16.40625 0.284210526,17.8125 0.663157895,19.15625 C1.10526316,18.9375 6.25263158,17 8.68421053,22.21875 Z M21.4421053,1.75 C23.7157895,8.25 17.3368421,10.15625 17.3368421,10.15625 C17.3368421,10.15625 14.9052632,4 21.4421053,1.75 Z M3.41052632,9.875 C3.41052632,9.875 9.72631579,11 8.24210526,17.46875 C1.73684211,16 3.41052632,9.875 3.41052632,9.875 Z" id="Shape"></path>
                </g>
            </g>
        </g>
    </g>
</svg>